<svg width="58" height="20" viewBox="0 0 58 20" fill="none" xmlns="http://www.w3.org/2000/svg">
<path d="M42.7906 6.4443C45.4996 5.60633 48.0323 4.5326 50.2369 2.81533C51.1195 2.12787 51.9034 1.34718 52.5646 0.453083C52.7328 0.225579 52.8945 0.0271615 53.2148 0.0279905C54.6763 0.0317711 56.1377 0.0291646 57.5992 0.0351779C57.697 0.03558 57.7945 0.0883015 58 0.148017C55.7992 6.05411 52.0754 10.7662 46.9151 14.4104C39.9591 19.3225 32.0682 20.455 23.7491 19.8523C23.6574 19.5826 23.8361 19.403 23.9464 19.216C25.12 17.225 26.3151 15.2458 27.4689 13.2439C27.7267 12.7965 28.1027 12.7308 28.5268 12.7208C29.6278 12.6949 30.7295 12.6743 31.8305 12.6876C32.2893 12.6932 32.7439 12.4795 33.3401 12.688C32.9095 13.4415 32.4985 14.1608 32.0162 15.0046C36.5401 14.5176 40.5028 13.0287 44.1038 10.541C43.9465 10.32 43.8076 10.4407 43.6829 10.4754C40.5153 11.358 37.2753 11.7425 33.9931 11.9072C31.9212 12.0112 29.8481 12.0451 27.7761 12.1233C27.4006 12.1375 27.2098 12.2937 27.0371 12.5881C25.7098 14.8507 24.359 17.1002 23.0462 19.3708C22.7907 19.8126 22.4907 19.9721 21.9848 19.9612C20.6933 19.9333 19.4008 19.9568 18.1087 19.9502C17.8629 19.949 17.5985 20.0108 17.272 19.752C18.6565 17.389 20.0505 15.0097 21.5087 12.5208C20.2711 12.4724 19.26 12.7014 18.2529 12.8925C14.863 13.5359 11.6225 14.5763 8.71561 16.4616C7.41499 17.3052 6.28918 18.3289 5.38208 19.5739C5.22569 19.7885 5.06592 19.9533 4.77405 19.9522C3.3126 19.947 1.85112 19.9484 0.389676 19.9412C0.290739 19.9408 0.192065 19.889 0 19.8347C0.821312 17.399 2.02033 15.184 3.48503 13.1068C6.95285 8.18892 11.5255 4.59912 17.1506 2.26926C22.6409 -0.00478477 28.4042 -0.143043 34.2079 0.0727391C34.348 0.311331 34.1954 0.456913 34.1044 0.611483C32.879 2.69253 31.6419 4.76711 30.4325 6.85704C30.1758 7.3006 29.8737 7.52763 29.3346 7.51999C27.7723 7.49783 26.2095 7.51214 24.5228 7.51214C24.9916 6.66643 25.4261 5.8827 25.8741 5.07449C22.9253 4.91024 15.5547 7.65153 13.8359 9.58355C14.7398 9.38917 15.5456 9.20964 16.3543 9.04322C18.4906 8.60356 20.6567 8.41206 22.8339 8.33153C25.2231 8.24316 27.6127 8.1632 30.0026 8.09814C30.3921 8.08754 30.6108 7.93992 30.8009 7.61521C32.1681 5.27938 33.563 2.959 34.9237 0.619568C35.1749 0.187727 35.4652 0.00399048 35.979 0.0148239C37.3128 0.0429497 38.6477 0.0194183 39.9822 0.0192323C40.1917 0.0192039 40.4066 -0.00507495 40.7371 0.172275C39.2937 2.63217 37.8512 5.09044 36.3153 7.7078C38.618 7.54099 40.6903 7.0544 42.7906 6.4443Z" fill="#162855"/>
</svg>
