<svg width="1512" height="913" viewBox="0 0 1512 913" fill="none" xmlns="http://www.w3.org/2000/svg">
<path d="M89.5537 12.5166C398.133 -118.189 722.086 -126.223 1048.48 -113.836C1051.99 -107.461 1051.77 -102.384 1050.11 -97.8418C1049.24 -95.4782 1047.98 -93.2369 1046.59 -91.0039C1045.22 -88.8072 1043.68 -86.5468 1042.39 -84.3086C973.431 35.4494 903.806 154.85 835.745 275.13C828.566 287.817 820.8 297.316 811.137 303.598C801.488 309.87 789.858 312.993 774.844 312.775C687.435 311.508 599.989 312.314 505.723 312.323C531.8 264.216 556.01 219.555 580.968 173.514L581.719 172.128L580.146 172.039C538.513 169.668 481.361 177.782 417.598 192.987C353.814 208.197 283.343 230.519 215.044 256.61C146.745 282.702 80.5992 312.569 25.4688 342.874C-29.635 373.164 -73.8257 403.941 -98.1289 431.877L-100.115 434.16L-97.1602 433.51C-46.2799 422.321 -0.944279 411.993 44.5576 402.416C164.708 377.129 286.542 366.111 409.036 361.479C543.486 356.393 677.958 351.792 812.448 348.048C823.537 347.739 832.283 345.433 839.628 340.775C846.966 336.122 852.817 329.179 858.213 319.752C935.143 185.349 1013.66 51.7752 1090.23 -82.8496C1097.25 -95.1893 1104.76 -103.889 1114.03 -109.441C1123.29 -114.99 1134.4 -117.456 1148.73 -117.147C1223.8 -115.529 1298.96 -116.883 1374.03 -116.894C1385.65 -116.895 1397.3 -118.231 1415.14 -108.695C1334.08 32.5749 1253.06 173.773 1166.81 324.087L1165.87 325.721L1167.75 325.581C1297.43 315.973 1414.13 287.949 1532.36 252.828L1532.37 252.825L1532.38 252.823C1684.89 204.579 1827.55 142.74 1951.75 43.8047C2001.48 4.19058 2045.66 -40.8026 2082.93 -92.3389C2092.41 -105.451 2101.24 -116.435 2118.71 -116.389C2200.96 -116.171 2283.19 -116.322 2365.44 -115.976C2368.01 -115.965 2370.63 -115.25 2374.13 -114.062C2377.39 -112.953 2381.4 -111.445 2386.7 -109.833C2262.87 229.405 2053.56 500.103 1763.6 709.506C1372.59 991.881 929.025 1057.12 461.246 1022.55C459.034 1015.37 460.206 1009.35 462.702 1003.82C463.994 1000.95 465.64 998.214 467.368 995.499C469.084 992.804 470.903 990.099 472.469 987.383C538.507 872.808 605.771 758.891 670.707 643.676C677.859 630.986 686.61 623.763 696.48 619.618C706.387 615.459 717.488 614.371 729.394 614.084C791.35 612.59 853.338 611.404 915.277 612.172C921.809 612.253 928.309 611.536 934.877 610.613C941.47 609.687 948.087 608.563 954.979 607.798C968.402 606.307 982.669 606.213 998.79 611.746C974.769 654.731 951.79 695.853 924.868 744.028L923.922 745.723L925.851 745.51C1180.6 717.461 1403.77 631.716 1606.56 488.449L1607.37 487.877L1606.8 487.062C1604.53 483.795 1602.27 481.716 1600 480.514C1597.72 479.303 1595.49 479.017 1593.35 479.232C1591.23 479.445 1589.22 480.147 1587.34 480.887C1585.42 481.644 1583.71 482.416 1582.02 482.897C1403.86 533.664 1221.61 555.787 1036.94 565.263C920.345 571.245 803.723 573.197 687.083 577.699C676.377 578.113 668.217 580.602 661.487 585.198C654.772 589.785 649.566 596.413 644.669 604.949C569.981 735.147 493.952 864.624 420.073 995.296C412.941 1007.91 405.24 1016.4 395.872 1021.68C386.503 1026.95 375.36 1029.08 361.234 1028.77C288.55 1027.16 215.764 1028.51 143.088 1028.14C129.259 1028.07 115.017 1031.48 97.291 1017.48L335.288 602.068L336.107 600.639L334.461 600.572C264.673 597.78 207.646 610.989 151.005 621.982C-39.8427 659.023 -222.339 718.937 -386.074 827.533C-459.358 876.139 -522.807 935.136 -573.934 1006.9C-582.697 1019.2 -591.426 1028.31 -607.332 1028.25C-689.586 1027.95 -771.819 1028.03 -854.065 1027.62C-856.679 1027.61 -859.33 1026.9 -862.755 1025.76C-865.939 1024.71 -869.784 1023.29 -874.728 1021.82C-828.551 882.135 -761.245 755.067 -679.054 635.867C-484.01 353.001 -226.83 146.528 89.5537 12.5166Z" stroke="white" stroke-width="2"/>
</svg>
