<svg width="40" height="40" viewBox="0 0 40 40" fill="none" xmlns="http://www.w3.org/2000/svg">
<path d="M37.5 17.4999C37.4975 15.1801 36.5748 12.9559 34.9344 11.3155C33.294 9.67509 31.0698 8.75242 28.75 8.74994C28.4734 8.74994 28.1968 8.76557 27.9234 8.79057C27.2179 7.28476 26.0979 6.01116 24.6946 5.11897C23.2913 4.22678 21.6629 3.75293 20 3.75293C18.3371 3.75293 16.7086 4.22678 15.3053 5.11897C13.902 6.01116 12.782 7.28476 12.0765 8.79057C11.8031 8.76557 11.5265 8.74994 11.25 8.74994C9.26368 8.75042 7.33667 9.42669 5.7857 10.6676C4.23473 11.9085 3.15211 13.6401 2.7158 15.5779C2.27948 17.5157 2.51545 19.5442 3.38491 21.3301C4.25437 23.116 5.70557 24.5529 7.49996 25.4046V32.4999C7.49996 33.163 7.76336 33.7989 8.2322 34.2677C8.70104 34.7365 9.33692 34.9999 9.99996 34.9999H30C30.663 34.9999 31.2989 34.7365 31.7677 34.2677C32.2366 33.7989 32.5 33.163 32.5 32.4999V25.4046C33.9948 24.6937 35.2578 23.574 36.1426 22.1751C37.0275 20.7761 37.4981 19.1552 37.5 17.4999ZM30 32.4999H9.99996V26.1593C10.4139 26.2196 10.8317 26.2499 11.25 26.2499H28.75C29.1683 26.2499 29.586 26.2196 30 26.1593V32.4999ZM28.75 23.7499H26.6015L27.4625 20.3031C27.5365 19.9837 27.4821 19.6481 27.3111 19.3684C27.14 19.0888 26.866 18.8876 26.5479 18.808C26.2299 18.7285 25.8934 18.7771 25.6109 18.9434C25.3283 19.1096 25.1224 19.3802 25.0375 19.6968L24.0234 23.7499H21.25V19.9999C21.25 19.6684 21.1183 19.3505 20.8839 19.1161C20.6494 18.8816 20.3315 18.7499 20 18.7499C19.6684 18.7499 19.3505 18.8816 19.1161 19.1161C18.8817 19.3505 18.75 19.6684 18.75 19.9999V23.7499H15.9765L14.9625 19.6968C14.925 19.5352 14.8557 19.3826 14.7586 19.248C14.6615 19.1134 14.5386 18.9994 14.3971 18.9128C14.2555 18.8262 14.0981 18.7687 13.934 18.7436C13.77 18.7184 13.6026 18.7262 13.4416 18.7665C13.2806 18.8067 13.1292 18.8786 12.9963 18.978C12.8634 19.0774 12.7516 19.2022 12.6674 19.3452C12.5833 19.4883 12.5284 19.6466 12.5061 19.8111C12.4838 19.9755 12.4945 20.1428 12.5375 20.3031L13.3984 23.7499H11.25C9.59236 23.7499 8.00265 23.0915 6.83055 21.9194C5.65844 20.7473 4.99996 19.1575 4.99996 17.4999C4.99996 15.8423 5.65844 14.2526 6.83055 13.0805C8.00265 11.9084 9.59236 11.2499 11.25 11.2499H11.3406C11.2801 11.6639 11.2498 12.0816 11.25 12.4999C11.25 12.8315 11.3817 13.1494 11.6161 13.3838C11.8505 13.6182 12.1684 13.7499 12.5 13.7499C12.8315 13.7499 13.1494 13.6182 13.3838 13.3838C13.6183 13.1494 13.75 12.8315 13.75 12.4999C13.75 10.8423 14.4084 9.25263 15.5805 8.08052C16.7527 6.90842 18.3424 6.24994 20 6.24994C21.6576 6.24994 23.2473 6.90842 24.4194 8.08052C25.5915 9.25263 26.25 10.8423 26.25 12.4999C26.25 12.8315 26.3817 13.1494 26.6161 13.3838C26.8505 13.6182 27.1684 13.7499 27.5 13.7499C27.8315 13.7499 28.1494 13.6182 28.3839 13.3838C28.6183 13.1494 28.75 12.8315 28.75 12.4999C28.7501 12.0816 28.7198 11.6639 28.6593 11.2499H28.75C30.4076 11.2499 31.9973 11.9084 33.1694 13.0805C34.3415 14.2526 35 15.8423 35 17.4999C35 19.1575 34.3415 20.7473 33.1694 21.9194C31.9973 23.0915 30.4076 23.7499 28.75 23.7499Z" fill="black"/>
</svg>
